<?xml version="1.0" standalone="no"?><!DOCTYPE svg PUBLIC "-//W3C//DTD SVG 1.1//EN" "http://www.w3.org/Graphics/SVG/1.1/DTD/svg11.dtd"><svg class="icon" height="512" viewBox="0 0 1024 1024" version="1.1" xmlns="http://www.w3.org/2000/svg"><path d="M512.231267 76.879971c119.947859 0 228.733495 48.446385 307.581284 127.314641l1.410116 1.90028c77.92272 78.357626 125.883035 186.68482 125.883035 305.660538 0 46.789653-7.345292 92.394317-21.37789 134.663002-13.302981 40.372499-32.054043 78.385255-55.815213 112.580055l0 154.383136c0 18.292622-14.957667 33.736359-33.245172 33.736359l-0.949628 0L512.231267 947.117982c-120.168893 0-228.712005-49.176003-307.558771-127.780245l0 0-0.243547 0c-78.141708-78.875418-127.535675-187.633425-127.535675-307.582307 0-119.924323 49.393967-228.710982 127.779222-307.561841l-0.243547 0C283.276738 125.32738 392.062374 76.879971 512.231267 76.879971L512.231267 76.879971zM772.557294 251.696486 772.557294 251.696486c-66.760496-66.735937-158.90922-107.83703-260.326027-107.83703-101.880365 0-193.787588 41.102117-260.060991 107.83703l0 0-0.462534 0c-66.51695 66.248843-107.375519 158.180626-107.375519 260.059967 0 101.660354 40.85857 193.567577 107.83703 260.303514l0 0c66.273403 66.735937 158.180626 107.83703 260.060991 107.83703l290.726407 0L802.956651 748.541321l0.218988 0c0-7.104815 1.89721-14.228049 6.66377-19.943215 22.326495-30.862915 40.372499-65.543785 52.726875-102.826923 11.382235-35.629475 18.046005-74.104765 18.046005-114.01473 0-100.930737-40.85857-192.132902-106.645902-258.867816L772.557294 251.696486 772.557294 251.696486zM373.234563 547.681664c0 34.620495-28.065196 62.684668-62.685691 62.684668s-62.685691-28.065196-62.685691-62.684668c0-34.620495 28.065196-62.685691 62.685691-62.685691S373.234563 513.061169 373.234563 547.681664zM576.669882 547.681664c0 34.620495-28.065196 62.684668-62.685691 62.684668-34.620495 0-62.684668-28.065196-62.684668-62.684668 0-34.620495 28.065196-62.685691 62.684668-62.685691C548.604686 484.995973 576.669882 513.061169 576.669882 547.681664zM780.106224 547.681664c0 34.620495-28.065196 62.684668-62.685691 62.684668-34.620495 0-62.684668-28.065196-62.684668-62.684668 0-34.620495 28.065196-62.685691 62.684668-62.685691C752.041028 484.995973 780.106224 513.061169 780.106224 547.681664z" /></svg>